<?xml version="1.0" encoding="utf-8"?>
<!-- Generator: Adobe Illustrator 24.1.2, SVG Export Plug-In . SVG Version: 6.00 Build 0)  -->
<svg version="1.1" id="Layer_1" xmlns="http://www.w3.org/2000/svg" xmlns:xlink="http://www.w3.org/1999/xlink" x="0px" y="0px"
	 viewBox="0 0 18.33 20" style="enable-background:new 0 0 18.33 20;" xml:space="preserve">
<style type="text/css">
	.st0{fill:#0B344B;}
	.st1{fill:#424242;}
</style>
<g>
	<path class="st1" d="M15.83,17.5H2.5v-15H5V5h2.5c0-0.92,0.75-1.67,1.67-1.67S10.83,4.08,10.83,5h2.5V2.5h2.5V17.5z M17.5,0H0.83
		C0.37,0,0,0.37,0,0.83v18.33C0,19.63,0.37,20,0.83,20H17.5c0.46,0,0.83-0.37,0.83-0.83V0.83C18.33,0.37,17.96,0,17.5,0z"/>
	<path class="st1" d="M8.33,14.17c-0.21,0-0.43-0.08-0.59-0.24l-2.26-2.26l1.18-1.18l1.67,1.67l3.33-3.33L12.85,10l-3.92,3.92
		C8.76,14.08,8.55,14.17,8.33,14.17z"/>
</g>
</svg>
