<?xml version="1.0" encoding="utf-8"?>
<!-- Generator: Adobe Illustrator 24.1.2, SVG Export Plug-In . SVG Version: 6.00 Build 0)  -->
<svg version="1.1" id="Layer_1" xmlns="http://www.w3.org/2000/svg" xmlns:xlink="http://www.w3.org/1999/xlink" x="0px" y="0px"
	 viewBox="0 0 20 20" style="enable-background:new 0 0 20 20;" xml:space="preserve">
<style type="text/css">
	.st0{fill:#0B344B;}
	.st1{fill:#424242;}
</style>
<g>
	<path class="st1" d="M12.25,12.25l-0.83,0.83c-0.17,0.17-0.33,0.25-0.58,0.25s-0.42-0.08-0.58-0.25c-0.33-0.33-0.33-0.83,0-1.17
		l0.83-0.83c0.33-0.33,0.83-0.33,1.17,0C12.58,11.42,12.58,11.92,12.25,12.25z M8.08,9.75C7.92,9.92,7.75,10,7.5,10
		S7.08,9.92,6.92,9.75L6.08,8.92c-0.33-0.33-0.33-0.83,0-1.17c0.33-0.33,0.83-0.33,1.17,0l0.83,0.83C8.42,8.92,8.42,9.42,8.08,9.75z
		 M7.25,13.92l-0.83,0.83C6.25,14.92,6.08,15,5.83,15s-0.42-0.08-0.58-0.25c-0.33-0.33-0.33-0.83,0-1.17l0.83-0.83
		c0.33-0.33,0.83-0.33,1.17,0C7.58,13.08,7.58,13.58,7.25,13.92z M8.33,3.33C3.75,3.33,0,7.08,0,11.67S3.75,20,8.33,20
		s8.33-3.75,8.33-8.33S12.92,3.33,8.33,3.33z"/>
	<path class="st1" d="M18.17,10.08C19.33,9,20,7.5,20,5.83C20,2.58,17.42,0,14.17,0C12.5,0,11,0.67,9.92,1.83
		C14.17,2.5,17.5,5.83,18.17,10.08z"/>
</g>
</svg>
