<?xml version="1.0" encoding="utf-8"?>
<!-- Generator: Adobe Illustrator 24.1.2, SVG Export Plug-In . SVG Version: 6.00 Build 0)  -->
<svg version="1.1" id="Layer_1" xmlns="http://www.w3.org/2000/svg" xmlns:xlink="http://www.w3.org/1999/xlink" x="0px" y="0px"
	 viewBox="0 0 138 22" style="enable-background:new 0 0 138 22;" xml:space="preserve">
<style type="text/css">
	.st0{fill:#0B344B;}
</style>
<g>
	<path class="st0" d="M3.01,19.02V3.46h4.63c4.8,0,8.04,3.24,8.04,7.81c0,4.51-3.12,7.75-8.12,7.75H3.01z M0.5,21.25h7.21
		c6.56,0,10.58-4.09,10.58-9.98c0-5.92-4.16-10.03-10.67-10.03H0.5V21.25z"/>
	<path class="st0" d="M26.59,19.33c-2.89,0-4.83-2.09-4.83-4.85c0-3.04,2.17-5.05,4.83-5.05c2.78,0,4.71,2.23,4.71,5.05
		C31.3,17.38,29.19,19.33,26.59,19.33z M26.24,21.42c2.28,0,4.02-1.01,5.03-2.65h0.03v2.48h2.25V7.52h-2.34v2.42l-0.06,0.03
		c-1.01-1.66-2.83-2.62-4.91-2.62c-3.99,0-6.85,3.07-6.85,7.13C19.39,18.65,22.37,21.42,26.24,21.42z"/>
	<path class="st0" d="M40.71,21.42c1.68,0,3.54-0.95,4.33-1.4c0,0-0.3-0.39-0.57-0.81s-0.51-0.85-0.51-0.85
		c-0.69,0.37-2,0.92-2.83,0.92c-1.33,0-1.71-0.79-1.71-2.45V9.49h4.65V7.52h-4.65V2.59l-2.34,0.25v4.68h-1.82v1.97h1.82v7.67
		C37.07,19.92,38.22,21.42,40.71,21.42z"/>
	<path class="st0" d="M51.8,19.33c-2.89,0-4.83-2.09-4.83-4.85c0-3.04,2.17-5.05,4.83-5.05c2.78,0,4.71,2.23,4.71,5.05
		C56.52,17.38,54.41,19.33,51.8,19.33z M51.46,21.42c2.28,0,4.02-1.01,5.03-2.65h0.03v2.48h2.25V7.52h-2.34v2.42l-0.06,0.03
		c-1.01-1.66-2.83-2.62-4.91-2.62c-3.99,0-6.85,3.07-6.85,7.13C44.61,18.65,47.58,21.42,51.46,21.42z"/>
	<path class="st0" d="M71.33,21.44c3.15,0,6.21-1.01,8.09-2.48v-8.63h-8.09v3.41h4.13v2.93c-1.3,0.79-2.66,1.16-4.13,1.16
		c-3.84,0-6.21-2.88-6.21-6.57c0-4.09,2.66-6.54,6.04-6.54c2.25,0,4.02,0.85,5.29,2.09l2.86-2.42c-2.11-2.28-5.23-3.41-8.15-3.41
		c-6.42,0-10.29,4.43-10.29,10.29C60.87,17.69,65.41,21.44,71.33,21.44z"/>
	<path class="st0" d="M86.97,21.5c1.59,0,3.09-0.65,4.16-1.92l0.06,0.03v1.63h3.82V7.46h-3.82v6.71c0,2.65-1.47,4-3.12,4
		c-1.76,0-2.54-0.85-2.54-3.35V7.46h-3.76v8.32C81.77,19.98,83.91,21.5,86.97,21.5z"/>
	<path class="st0" d="M104.29,18.17c-2.14,0-3.61-1.55-3.61-3.75c0-2.37,1.56-3.86,3.61-3.86c2.02,0,3.58,1.63,3.58,3.86
		C107.88,16.68,106.23,18.17,104.29,18.17z M103.57,21.5c1.85,0,3.27-0.68,4.25-1.92l0.06,0.03v1.63h3.61V7.46h-3.79v1.58
		l-0.06,0.03c-1.01-1.18-2.51-1.8-4.16-1.8c-3.79,0-6.65,2.96-6.65,7.13C96.83,18.65,99.69,21.5,103.57,21.5z"/>
	<path class="st0" d="M114.08,21.25h3.79v-6.37c0-2.09,1.24-3.61,3.58-3.61c0.23,0,0.61,0,1.01,0.03V7.27h-0.29
		c-1.65,0-3.18,0.79-4.25,2.2h-0.06v-2h-3.79V21.25z"/>
	<path class="st0" d="M130.19,18.17c-2.11,0-3.61-1.55-3.61-3.75c0-2.37,1.59-3.86,3.61-3.86c2.17,0,3.7,1.63,3.7,3.86
		C133.89,16.68,132.27,18.17,130.19,18.17z M129.49,21.5c1.91,0,3.38-0.7,4.36-1.94h0.03v1.69h3.61V0.5h-3.76v8.57h-0.06
		c-1.04-1.18-2.54-1.8-4.28-1.8c-3.79,0-6.68,2.96-6.68,7.13C122.73,18.65,125.59,21.5,129.49,21.5z"/>
</g>
</svg>
